<svg width="32" height="40" viewBox="0 0 32 40" fill="none" xmlns="http://www.w3.org/2000/svg">
<path d="M30.3514 19.2157L2.73165 0.167605C2.43926 -0.0333522 2.06021 -0.0543051 1.74782 0.108556C1.43448 0.273322 1.23828 0.597139 1.23828 0.951433V39.0476C1.23828 39.4019 1.43448 39.7266 1.74782 39.8914C1.88687 39.9638 2.03925 40 2.19068 40C2.38021 40 2.56879 39.9428 2.73165 39.8314L30.3514 20.7833C30.6095 20.6052 30.7628 20.3128 30.7628 19.9995C30.7628 19.6862 30.6085 19.3938 30.3514 19.2157Z" fill="white"/>
<path d="M30.636 18.8046L30.6352 18.8041L3.01552 -0.244002L3.01486 -0.244455C2.56863 -0.551143 1.99161 -0.582415 1.51667 -0.334809L1.51667 -0.334812L1.51511 -0.333991C1.03786 -0.0830357 0.738281 0.410914 0.738281 0.951433V39.0476C0.738281 39.5875 1.03736 40.0827 1.51511 40.334L1.51695 40.3349C1.72815 40.4449 1.95985 40.5 2.19068 40.5C2.481 40.5 2.76799 40.4124 3.01399 40.2441L3.01552 40.243L30.6352 21.1949L30.6353 21.1949C31.0288 20.9234 31.2628 20.4771 31.2628 19.9995C31.2628 19.521 31.0271 19.0755 30.636 18.8046Z" stroke="black" stroke-opacity="0.5"/>
</svg>
